# xmcd CD database file
#
# Track frame offsets:
#	150
#	18337
#	36170
#	54380
#	72852
#	90690
#	109160
#	129332
#	150490
#	171570
#	193485
#	213862
#	232410
#	249770
#	269317
#	285987
#
# Disc length: 4047 seconds
#
# Revision: 3
# Processed by: cddbd v1.5.2PL0 Copyright (c) Steve Scherf et al.
# Submitted via: CDex 1.70beta2
#
DISCID=e10fcd10
DTITLE=ちあきなおみ - 星の流れに
DYEAR=1900
DGENRE=Pop
TTITLE0=紅とんぼ
TTITLE1=さだめ川
TTITLE2=歳月河
TTITLE3=君知らず
TTITLE4=情け歌
TTITLE5=昭和えれじい
TTITLE6=ひとりしずか
TTITLE7=都の雨に
TTITLE8=男の友情
TTITLE9=逢いたかったぜ
TTITLE10=帰れないんだよ
TTITLE11=雨降る街角
TTITLE12=ネオン川
TTITLE13=星の流れに
TTITLE14=しのび雪
TTITLE15=矢切の渡し
EXTD=
EXTT0=
EXTT1=
EXTT2=
EXTT3=
EXTT4=
EXTT5=
EXTT6=
EXTT7=
EXTT8=
EXTT9=
EXTT10=
EXTT11=
EXTT12=
EXTT13=
EXTT14=
EXTT15=
PLAYORDER=
